<svg width="64" height="64" viewBox="0 0 64 64" fill="none" xmlns="http://www.w3.org/2000/svg">
  <rect width="64" height="64" rx="12" fill="#0A0B0D"/>
  <path d="M32 12C32 12 42 18 42 28C42 38 32 44 32 44C32 44 22 38 22 28C22 18 32 12 32 12Z" fill="url(#gradient1)" opacity="0.8"/>
  <path d="M32 20C32 20 38 24 38 30C38 36 32 40 32 40C32 40 26 36 26 30C26 24 32 20 32 20Z" fill="url(#gradient2)"/>
  <circle cx="32" cy="30" r="4" fill="#35FF8F"/>
  <defs>
    <linearGradient id="gradient1" x1="22" y1="12" x2="42" y2="44" gradientUnits="userSpaceOnUse">
      <stop stopColor="#1E64F0"/>
      <stop offset="1" stopColor="#35FF8F"/>
    </linearGradient>
    <linearGradient id="gradient2" x1="26" y1="20" x2="38" y2="40" gradientUnits="userSpaceOnUse">
      <stop stopColor="#35FF8F"/>
      <stop offset="1" stopColor="#1E64F0"/>
    </linearGradient>
  </defs>
</svg>
